<svg width="184" height="28" viewBox="0 0 184 28" fill="none" xmlns="http://www.w3.org/2000/svg">
<path d="M9.55682 27H0.275568V0.818181H9.63352C12.267 0.818181 14.5341 1.34233 16.4347 2.39062C18.3352 3.4304 19.7969 4.92614 20.8196 6.87784C21.8509 8.82955 22.3665 11.1648 22.3665 13.8835C22.3665 16.6108 21.8509 18.9545 20.8196 20.9148C19.7969 22.875 18.3267 24.3793 16.4091 25.4276C14.5 26.4759 12.2159 27 9.55682 27ZM5.81108 22.2571H9.3267C10.9631 22.2571 12.3395 21.9673 13.456 21.3878C14.581 20.7997 15.4247 19.892 15.9872 18.6648C16.5582 17.429 16.8438 15.8352 16.8438 13.8835C16.8438 11.9489 16.5582 10.3679 15.9872 9.14062C15.4247 7.91335 14.5852 7.00994 13.4688 6.4304C12.3523 5.85085 10.9759 5.56108 9.33949 5.56108H5.81108V22.2571ZM35.2369 27.3835C33.2511 27.3835 31.5337 26.9616 30.0849 26.1179C28.6445 25.2656 27.5323 24.081 26.7482 22.5639C25.9641 21.0384 25.5721 19.2699 25.5721 17.2585C25.5721 15.2301 25.9641 13.4574 26.7482 11.9403C27.5323 10.4148 28.6445 9.23011 30.0849 8.38636C31.5337 7.53409 33.2511 7.10795 35.2369 7.10795C37.2227 7.10795 38.9357 7.53409 40.3761 8.38636C41.8249 9.23011 42.9414 10.4148 43.7255 11.9403C44.5096 13.4574 44.9016 15.2301 44.9016 17.2585C44.9016 19.2699 44.5096 21.0384 43.7255 22.5639C42.9414 24.081 41.8249 25.2656 40.3761 26.1179C38.9357 26.9616 37.2227 27.3835 35.2369 27.3835ZM35.2624 23.1648C36.1658 23.1648 36.9201 22.9091 37.5252 22.3977C38.1303 21.8778 38.5863 21.1705 38.8931 20.2756C39.2085 19.3807 39.3661 18.3622 39.3661 17.2202C39.3661 16.0781 39.2085 15.0597 38.8931 14.1648C38.5863 13.2699 38.1303 12.5625 37.5252 12.0426C36.9201 11.5227 36.1658 11.2628 35.2624 11.2628C34.3505 11.2628 33.5835 11.5227 32.9613 12.0426C32.3477 12.5625 31.8832 13.2699 31.5678 14.1648C31.261 15.0597 31.1076 16.0781 31.1076 17.2202C31.1076 18.3622 31.261 19.3807 31.5678 20.2756C31.8832 21.1705 32.3477 21.8778 32.9613 22.3977C33.5835 22.9091 34.3505 23.1648 35.2624 23.1648ZM48.4428 27V7.36364H53.7227V10.7898H53.9272C54.2852 9.57102 54.886 8.65057 55.7298 8.02841C56.5735 7.39773 57.5451 7.08239 58.6445 7.08239C58.9173 7.08239 59.2113 7.09943 59.5266 7.13352C59.842 7.16761 60.119 7.21449 60.3576 7.27415V12.1065C60.1019 12.0298 59.7482 11.9616 59.2965 11.902C58.8448 11.8423 58.4315 11.8125 58.0565 11.8125C57.2553 11.8125 56.5394 11.9872 55.9087 12.3366C55.2866 12.6776 54.7923 13.1548 54.4258 13.7685C54.0678 14.3821 53.8888 15.0895 53.8888 15.8906V27H48.4428ZM68.2102 27.3707C66.9574 27.3707 65.8409 27.1534 64.8608 26.7188C63.8807 26.2756 63.1051 25.6236 62.5341 24.7628C61.9716 23.8935 61.6903 22.8111 61.6903 21.5156C61.6903 20.4247 61.8906 19.5085 62.2912 18.767C62.6918 18.0256 63.2372 17.429 63.9276 16.9773C64.6179 16.5256 65.402 16.1847 66.2798 15.9545C67.1662 15.7244 68.0952 15.5625 69.0668 15.4688C70.2088 15.3494 71.1293 15.2386 71.8281 15.1364C72.527 15.0256 73.0341 14.8636 73.3494 14.6506C73.6648 14.4375 73.8224 14.1222 73.8224 13.7045V13.6278C73.8224 12.8182 73.5668 12.1918 73.0554 11.7486C72.5526 11.3054 71.8366 11.0838 70.9077 11.0838C69.9276 11.0838 69.1477 11.3011 68.5682 11.7358C67.9886 12.1619 67.6051 12.6989 67.4176 13.3466L62.3807 12.9375C62.6364 11.7443 63.1392 10.7131 63.8892 9.84375C64.6392 8.96591 65.6065 8.29261 66.7912 7.82386C67.9844 7.34659 69.3651 7.10795 70.9332 7.10795C72.0241 7.10795 73.0682 7.2358 74.0653 7.49148C75.071 7.74716 75.9616 8.14347 76.7372 8.6804C77.5213 9.21733 78.1392 9.90767 78.5909 10.7514C79.0426 11.5866 79.2685 12.5881 79.2685 13.7557V27H74.1037V24.277H73.9503C73.6349 24.8906 73.2131 25.4318 72.6847 25.9006C72.1562 26.3608 71.5213 26.723 70.7798 26.9872C70.0384 27.2429 69.1818 27.3707 68.2102 27.3707ZM69.7699 23.6122C70.571 23.6122 71.2784 23.4545 71.892 23.1392C72.5057 22.8153 72.9872 22.3807 73.3366 21.8352C73.6861 21.2898 73.8608 20.6719 73.8608 19.9815V17.8977C73.6903 18.0085 73.456 18.1108 73.1577 18.2045C72.8679 18.2898 72.5398 18.3707 72.1733 18.4474C71.8068 18.5156 71.4403 18.5795 71.0739 18.6392C70.7074 18.6903 70.375 18.7372 70.0767 18.7798C69.4375 18.8736 68.8793 19.0227 68.402 19.2273C67.9247 19.4318 67.554 19.7088 67.2898 20.0582C67.0256 20.3991 66.8935 20.8253 66.8935 21.3366C66.8935 22.0781 67.1619 22.6449 67.6989 23.0369C68.2443 23.4205 68.9347 23.6122 69.7699 23.6122ZM83.4936 27V7.36364H88.6839V10.8281H88.9141C89.3232 9.67756 90.005 8.76989 90.9595 8.10511C91.9141 7.44034 93.0561 7.10795 94.3857 7.10795C95.7322 7.10795 96.8786 7.4446 97.8246 8.1179C98.7706 8.78267 99.4013 9.68608 99.7166 10.8281H99.9212C100.322 9.70312 101.046 8.80398 102.094 8.13068C103.151 7.44886 104.4 7.10795 105.84 7.10795C107.673 7.10795 109.16 7.69176 110.302 8.85938C111.452 10.0185 112.028 11.6634 112.028 13.794V27H106.594V14.8679C106.594 13.777 106.305 12.9588 105.725 12.4134C105.146 11.8679 104.421 11.5952 103.552 11.5952C102.563 11.5952 101.792 11.9105 101.238 12.5412C100.684 13.1634 100.407 13.9858 100.407 15.0085V27H95.1271V14.7528C95.1271 13.7898 94.8501 13.0227 94.2962 12.4517C93.7507 11.8807 93.0305 11.5952 92.1357 11.5952C91.5305 11.5952 90.9851 11.7486 90.4993 12.0554C90.022 12.3537 89.6428 12.7756 89.3615 13.321C89.0803 13.858 88.9396 14.4886 88.9396 15.2131V27H83.4936ZM121.929 27.3707C120.676 27.3707 119.56 27.1534 118.58 26.7188C117.599 26.2756 116.824 25.6236 116.253 24.7628C115.69 23.8935 115.409 22.8111 115.409 21.5156C115.409 20.4247 115.609 19.5085 116.01 18.767C116.411 18.0256 116.956 17.429 117.646 16.9773C118.337 16.5256 119.121 16.1847 119.999 15.9545C120.885 15.7244 121.814 15.5625 122.786 15.4688C123.928 15.3494 124.848 15.2386 125.547 15.1364C126.246 15.0256 126.753 14.8636 127.068 14.6506C127.384 14.4375 127.541 14.1222 127.541 13.7045V13.6278C127.541 12.8182 127.286 12.1918 126.774 11.7486C126.271 11.3054 125.555 11.0838 124.626 11.0838C123.646 11.0838 122.866 11.3011 122.287 11.7358C121.707 12.1619 121.324 12.6989 121.136 13.3466L116.099 12.9375C116.355 11.7443 116.858 10.7131 117.608 9.84375C118.358 8.96591 119.325 8.29261 120.51 7.82386C121.703 7.34659 123.084 7.10795 124.652 7.10795C125.743 7.10795 126.787 7.2358 127.784 7.49148C128.79 7.74716 129.68 8.14347 130.456 8.6804C131.24 9.21733 131.858 9.90767 132.31 10.7514C132.761 11.5866 132.987 12.5881 132.987 13.7557V27H127.822V24.277H127.669C127.354 24.8906 126.932 25.4318 126.403 25.9006C125.875 26.3608 125.24 26.723 124.499 26.9872C123.757 27.2429 122.901 27.3707 121.929 27.3707ZM123.489 23.6122C124.29 23.6122 124.997 23.4545 125.611 23.1392C126.224 22.8153 126.706 22.3807 127.055 21.8352C127.405 21.2898 127.58 20.6719 127.58 19.9815V17.8977C127.409 18.0085 127.175 18.1108 126.876 18.2045C126.587 18.2898 126.259 18.3707 125.892 18.4474C125.526 18.5156 125.159 18.5795 124.793 18.6392C124.426 18.6903 124.094 18.7372 123.795 18.7798C123.156 18.8736 122.598 19.0227 122.121 19.2273C121.643 19.4318 121.273 19.7088 121.009 20.0582C120.744 20.3991 120.612 20.8253 120.612 21.3366C120.612 22.0781 120.881 22.6449 121.418 23.0369C121.963 23.4205 122.653 23.6122 123.489 23.6122Z" fill="#FEFEFE"/>
<path d="M146.596 27H137.315V0.818181H146.673C149.306 0.818181 151.573 1.34233 153.474 2.39062C155.374 3.4304 156.836 4.92614 157.859 6.87784C158.89 8.82955 159.406 11.1648 159.406 13.8835C159.406 16.6108 158.89 18.9545 157.859 20.9148C156.836 22.875 155.366 24.3793 153.448 25.4276C151.539 26.4759 149.255 27 146.596 27ZM142.85 22.2571H146.366C148.002 22.2571 149.379 21.9673 150.495 21.3878C151.62 20.7997 152.464 19.892 153.026 18.6648C153.597 17.429 153.883 15.8352 153.883 13.8835C153.883 11.9489 153.597 10.3679 153.026 9.14062C152.464 7.91335 151.624 7.00994 150.508 6.4304C149.391 5.85085 148.015 5.56108 146.379 5.56108H142.85V22.2571ZM163.506 27V0.818181H173.989C175.915 0.818181 177.522 1.10369 178.809 1.67472C180.096 2.24574 181.063 3.03835 181.711 4.05256C182.358 5.05824 182.682 6.21733 182.682 7.52983C182.682 8.55256 182.478 9.4517 182.069 10.2273C181.659 10.9943 181.097 11.625 180.381 12.1193C179.674 12.6051 178.864 12.9503 177.952 13.1548V13.4105C178.949 13.4531 179.882 13.7344 180.752 14.2543C181.63 14.7741 182.341 15.5028 182.887 16.4403C183.432 17.3693 183.705 18.4773 183.705 19.7642C183.705 21.1534 183.36 22.3935 182.669 23.4844C181.988 24.5668 180.978 25.4233 179.64 26.054C178.301 26.6847 176.652 27 174.692 27H163.506ZM169.042 22.4744H173.554C175.097 22.4744 176.222 22.1804 176.929 21.5923C177.637 20.9957 177.99 20.2031 177.99 19.2145C177.99 18.4901 177.816 17.8509 177.466 17.2969C177.117 16.7429 176.618 16.3082 175.971 15.9929C175.331 15.6776 174.569 15.5199 173.682 15.5199H169.042V22.4744ZM169.042 11.7741H173.145C173.904 11.7741 174.577 11.642 175.165 11.3778C175.762 11.1051 176.23 10.7216 176.571 10.2273C176.921 9.73295 177.096 9.14062 177.096 8.45028C177.096 7.50426 176.759 6.74148 176.086 6.16193C175.421 5.58239 174.475 5.29261 173.248 5.29261H169.042V11.7741Z" fill="#BF2604"/>
</svg>
